<?xml version="1.0" encoding="utf-8"?><!--Generator: Adobe Illustrator 23.0.5, SVG Export Plug-In . SVG Version: 6.00 Build 0)--><svg version="1.1" id="Layer_1" xmlns="http://www.w3.org/2000/svg" xmlns:xlink="http://www.w3.org/1999/xlink" x="0px" y="0px" viewBox="0 0 600 200" style="enable-background:new 0 0 600 200" xml:space="preserve"><style type="text/css">.st0{fill:#FEFEFE;} .st1{fill:#4B258C;} .st2{fill:#4E2492;} .st3{fill:#342A53;} .st4{fill:#5423A1;} .st5{fill:#3D2869;} .st6{fill:#3A2962;} .st7{fill:#482584;} .st8{fill:#402771;} .st9{fill:#37295B;} .st10{fill:#45267D;} .st11{fill:#432777;} .st12{fill:#52249A;} .st13{fill:#45267C;} .st14{fill:#3F286E;} .st15{fill:#3F286D;} .st16{fill:#51249A;} .st17{fill:#502498;} .st18{fill:#392860;} .st19{fill:#362A58;} .st20{fill:#44267B;} .st21{fill:#53249E;}</style><g><path class="st0" d="M119.5,75.8c-2.8,0-5.6,0-8.3,0c-4.6,0-9.2,0-13.9,0c-4.6,0-9.3,0-13.9,0c-4.6,0-9.2,0-13.9,0
		c-4.7,0-9.3,0-14,0c-2.3,0-4.6,0-6.9,0c-2.3,0-4.6,0-6.9,0c3.4,1.6,6.7,3.7,10.1,5.5C64,88,76.5,94.4,87.3,103.8
		c10.9,9.4,17.4,23.2,25,35.8c5.8,9.7,14.4,16.2,24.2,19.6c18.1,6.4,37.3,4.9,55.9,4.3h193.7c18.7,0.6,37.8,2.1,55.9-4.3
		c9.8-3.5,18.4-10,24.2-19.6c7.6-12.6,14.1-26.3,25-35.8c10.8-9.4,23.3-15.8,35.5-22.6c3.3-1.8,6.6-3.9,10.1-5.5c-2.3,0-4.6,0-6.9,0
		c-2.3,0-4.6,0-6.9,0c-4.7,0-9.3,0-14,0c-4.6,0-9.2,0-13.9,0c-4.6,0-9.3,0-13.9,0c-4.6,0-9.2,0-13.9,0c-2.8,0-5.6,0-8.3,0"/><path class="st1" d="M344.1,120.1c0,7.4,0,14.9,0,22.3c0,0.9-0.3,1.2-1.2,1.2c-1-0.1-2-0.1-3,0c-0.9,0.1-1.2-0.2-1.1-1.1
		c0.1-2.5,0-5,0-7.5c0-12.4,0-24.8,0-37.2c0-0.9,0.2-1.3,1.2-1.2c0.9,0.1,1.9,0.1,2.8,0c1.2-0.2,1.4,0.4,1.4,1.4
		C344.1,105.4,344.1,112.7,344.1,120.1z"/><path class="st2" d="M360.4,120c0,7.4,0,14.9,0,22.3c0,1.1-0.3,1.3-1.3,1.3c-0.9-0.1-1.9-0.1-2.8,0c-0.9,0.1-1.2-0.2-1.2-1.2
		c0.1-4.8,0-9.5,0-14.3c0-10,0-20,0-29.9c0-1.9-0.2-1.6,1.6-1.6c0.9,0,1.9,0,2.8,0c0.7,0,0.9,0.2,0.9,0.9c0,2.9,0,5.9,0,8.8
		C360.4,110.8,360.4,115.4,360.4,120z"/><path class="st3" d="M209.5,114.1c-3.7,1.4-6,4.8-6.1,9.5c-0.1,6.3-0.1,12.5,0,18.8c0,1-0.3,1.4-1.3,1.3c-1-0.1-2.1-0.1-3.1,0
		c-0.7,0-1-0.2-1-0.9c0-2.3,0-4.7,0-7c0-8.3,0-16.5,0-24.8c0-0.9,0.2-1.3,1.2-1.2c1,0.1,2.1,0.1,3.1,0c0.9-0.1,1.1,0.3,1.1,1.1
		c-0.1,1.2,0,2.5,0,4.1c1.5-2.5,3.3-4.3,5.8-5.2c0.3-0.1,0.5,0.1,0.5,0.3C209.9,111.4,210.2,112.8,209.5,114.1z"/><path class="st4" d="M381.5,122.4c1.4-0.3,2.8-0.1,4.2-0.2c1.6,0,3.2,0,4.8,0c0.6,0,0.7-0.2,0.7-0.8c0-2.7-1.1-4.8-3.3-6.4
		c-0.1-1.3,0-2.7,0-4c0-0.5,0.1-0.9,0.5-1.2c4.2,1.3,6.4,4.5,7.4,8.6c0.5,2,0.6,4,0.6,6c0,6,0,12.1,0,18.1c0,0.8-0.2,1.1-1,1.1
		c-1.2-0.1-2.3-0.1-3.5,0c-0.6,0-0.9-0.2-0.8-0.8c0-1.3,0-2.6,0-4.1c-1,1.1-1.6,2.3-2.7,3c-0.6-0.3-0.6-0.9-0.6-1.4
		c0-0.9,0.1-1.8-0.2-2.6c0-0.7,0.4-1.1,0.8-1.6c1.9-2.5,2.4-5.3,2.3-8.4c0-0.7-0.4-0.9-1-0.9c-0.6,0-1.3,0.2-1.8-0.4
		c-0.3-0.8-0.2-1.7-0.2-2.5c0-0.8-0.3-1.1-1.1-1.1c-1.6,0-3.3,0.1-4.9-0.1C381.8,122.6,381.6,122.6,381.5,122.4z"/><path class="st5" d="M263.8,143.8c-2.6-0.5-4.7-1.9-6.4-3.9c-2.3-2.7-3.5-5.9-3.8-9.4c-0.5-4.3-0.4-8.6,1.2-12.7
		c1.7-4.1,4.4-7.1,8.9-8.3c0.9-0.2,1,0.4,1.1,1c0.1,1.2,0.1,2.3-0.1,3.5c-0.1,0.3-0.4,0.6-0.6,0.8c-2.8,2-4.1,5-4.6,8.3
		c-0.4,2.6-0.3,5.2,0.1,7.8c0.6,3.1,1.9,5.8,4.6,7.7c0.3,0.2,0.6,0.4,0.7,0.7c0.2,1.2,0.2,2.4,0.1,3.6
		C264.9,143.5,264.7,144.1,263.8,143.8z"/><path class="st6" d="M237.7,109.4c3.4,0.9,5.2,3.4,6.3,6.5c0.9,2.4,1.1,4.9,1.1,7.4c0,6.4,0,12.8,0,19.2c0,0.8-0.1,1.1-1,1.1
		c-1.1-0.1-2.3-0.1-3.4,0c-0.8,0.1-1-0.2-1-1c0-6.3,0-12.7,0-19c0-1.9-0.1-3.7-0.7-5.5c-0.3-1.1-0.9-2-1.6-2.8
		c0.3-1.5,0.1-3.1,0.2-4.6C237.6,110.2,237.5,109.8,237.7,109.4z"/><path class="st7" d="M322.5,126.7c0-5.3,0-10.6,0-15.9c0-0.9,0.2-1.2,1.1-1.1c1,0.1,2,0.1,3,0c1-0.1,1.1,0.3,1.1,1.2
		c0,6.2,0,12.4,0,18.6c0,4.4,0,8.7,0,13.1c0,0.8-0.2,1.1-1.1,1.1c-1.1-0.1-2.2-0.1-3.3,0c-0.8,0.1-1-0.3-1-1
		C322.5,137.3,322.5,132,322.5,126.7z"/><path class="st8" d="M274.9,110.4c3,1.4,5.1,3.8,6.2,6.8c2.5,6.3,2.5,12.6,0,18.9c-1.1,2.9-3.1,5.3-6,6.7c-0.5-0.4-0.3-1-0.4-1.6
		c-0.1-1.5,0.2-3-0.2-4.4c-0.1-0.5,0.2-0.9,0.4-1.4c1.8-3.3,2.2-6.9,1.9-10.6c-0.2-2.7-0.8-5.2-2.3-7.5c-0.2-0.2-0.3-0.5-0.2-0.9
		c0.3-1.4,0.1-2.9,0.2-4.4C274.5,111.5,274.4,110.9,274.9,110.4z"/><path class="st9" d="M220.3,111.4c1.5,1.2,2.3,2.9,3,4.7c1.3-2.1,2.6-4.2,4.9-5.4c0.5-0.2,0.7,0.1,0.7,0.4c0.1,1.2,0.4,2.5-0.2,3.7
		c-3.5,2.4-4.4,5.9-4.5,9.9c0,5.9,0,11.8,0,17.7c0,1.1-0.3,1.4-1.3,1.3c-1.3-0.2-2.6,0.3-3.9-0.2c0.8-0.5,0.7-1.3,0.7-2.1
		c0-9.1,0-18.1,0-27.2C219.8,113.1,219.6,112.2,220.3,111.4z"/><path class="st10" d="M303.8,119.9c1.5-1.9,3-3.7,4.6-5.8c-2.6,0-4.9,0-7.3,0c-0.6-1.4-0.6-2.9,0-4.3c4.2,0,8.4,0,12.6-0.1
		c0.6,0,0.7,0.3,0.7,0.7c0,1.3,0,2.5,0,3.8c0,0.3-0.1,0.6-0.3,0.8c-3.2,3.9-6.4,7.7-9.6,11.6c-0.7-0.3-0.6-1-0.6-1.6
		C304,123.4,304.1,121.6,303.8,119.9z"/><path class="st11" d="M297.6,135.3c-0.9,1.3-1.9,2.5-2.9,3.6c0.1,0.6,0.6,0.3,0.9,0.3c1.5,0,3.1,0,4.6,0c0.8,0,1.1,0.3,1.1,1
		c0,0.1,0,0.1,0,0.2c0.2,3,0.2,3-2.8,3c-2.9,0-5.8,0-8.8,0c-0.4,0-0.8,0.1-1.1-0.1c0-1.5,0-2.9-0.1-4.4c0-0.3,0.1-0.6,0.3-0.8
		c2.7-3.3,5.4-6.6,8.1-9.9c0.5,0,0.7,0.5,0.7,0.9C297.7,131.2,297.8,133.2,297.6,135.3z"/><path class="st12" d="M382.5,144.2c-3.1,0.5-6.1,0.1-8.8-1.6c-0.3-0.2-0.7-0.4-0.9-0.8c0.3-3.5,0.1-6.9,0.1-10.4c0-1.8,0-3.5,0-5.3
		c0-0.3,0-0.7,0.2-1c0.6-0.5,1.2-1,2-1.2c0.9,0.1,0.7,0.9,0.8,1.5c0.2,1.3-0.1,2.7-0.1,4c-0.1,0.9-0.6,1.6-0.7,2.5
		c-0.2,0.9-0.2,1.9,0,2.8c0.3,2.5,3,4.5,5.9,4.7c0.5,0,1.1-0.1,1.5,0.4C382.7,141.3,382.7,142.8,382.5,144.2z"/><path class="st13" d="M288.6,143.4c3.7,0,7.5,0,11.2,0c0.9,0,1.1-0.2,1.1-1.1c0-2.9,0-2.9-2.9-2.9c-1,0-2,0-3,0
		c-0.2,0-0.7,0.1-0.4-0.4c0.3,0.5,0.7,0.2,1.1,0.2c5.8,0,11.7,0,17.5,0c0.9,0,1.2,0.2,1.1,1.1c-0.1,1.1,0.4,2.5-0.2,3.2
		c-0.6,0.7-2.1,0.2-3.1,0.2c-7.1,0-14.2,0-21.4,0C289.4,143.5,288.9,143.8,288.6,143.4z"/><path class="st14" d="M274.6,136.6c0.5,0.2,0.5,0.7,0.5,1.1c0,1.7,0,3.4,0,5.1c-3.6,1.9-7.4,2.1-11.3,1c0.8,0,0.9-0.5,0.9-1.1
		c0-1.2,0-2.4,0-3.6c0.3-0.3,0.7-0.1,1.1,0c3,0.8,5.6,0.3,7.8-2C273.9,136.8,274.1,136.5,274.6,136.6z"/><path class="st15" d="M274.9,110.4c0,1.7,0,3.4,0,5.1c0,0.4,0.2,0.9-0.4,1c-0.4,0.1-0.6-0.2-0.9-0.4c-2.2-2.2-4.9-2.6-7.8-1.9
		c-0.4,0.1-0.8,0.4-1.3,0c0-1.2,0-2.5,0-3.7c0-0.6-0.1-1-0.8-1C267.5,108.5,271.3,108.6,274.9,110.4z"/><path class="st11" d="M301.2,109.8c0,1.4,0,2.9,0,4.3c-3.7,0-7.5,0-11.2,0.1c-0.6,0-0.7-0.3-0.7-0.8c0-1,0-2,0-2.9
		c0-0.5,0.1-0.8,0.7-0.7C293.7,109.8,297.4,109.8,301.2,109.8z"/><path class="st16" d="M382.3,113.6c-3.6,0.1-7.1,0.9-10.4,2.8c0-1.7,0-3.2,0-4.7c0-0.3,0.2-0.5,0.5-0.6c2.7-1,5.4-1.9,8.4-2
		c0.4-0.2,0.8-0.1,1.2-0.1c0.3,0,0.6,0.1,0.7,0.5C382.6,110.9,382.9,112.2,382.3,113.6z"/><path class="st17" d="M373,125.1c0.1,0.5,0.2,1,0.2,1.5c0,4.6,0,9.2,0,13.8c0,0.5,0.1,1.1-0.5,1.4c-2.1-1.7-3-4-3.2-6.5
		c-0.4-3.7,0.2-7.2,3.1-9.9C372.8,125.3,372.9,125.2,373,125.1z"/><path class="st18" d="M228.7,114.8c0-1.1,0-2.2,0-3.2c0-0.4,0.1-0.8-0.5-0.9c3-1.9,6.1-2.2,9.5-1.3c0.5,1.8,0.2,3.7,0.2,5.5
		c0,0.2-0.2,0.3-0.4,0.3C234.6,113.1,231.7,113.5,228.7,114.8z"/><path class="st19" d="M209.5,114.1c0-1.1,0-2.2,0-3.3c0-0.4,0.1-0.8-0.3-1c2.9-1.1,5.8-1.3,8.6,0c0.5,0.3,0.6,0.8,0.6,1.3
		c0,1.4,0,2.8,0,4.1c0,0.6,0,1.2-0.8,1.4c-1.7-2.5-4.1-3.3-7.4-2.6C210,114,209.7,114,209.5,114.1z"/><path class="st19" d="M220.3,111.4c-0.5,6.9-0.1,13.7-0.2,20.6c-0.1,3.4,0,6.8,0,10.2c0,0.9-0.2,1.3-1.1,1.1c0-2.1-0.1-4.2-0.1-6.3
		c0-5.1,0-10.2,0-15.2c-0.2-0.4,0-0.8-0.2-1.2c-0.1-0.6-0.4-1.2-0.3-1.8c-0.2-2.4-0.1-4.7-0.1-7.1c0-0.5-0.2-1.2,0.6-1.3
		C219.6,110.6,220,111,220.3,111.4z"/><path class="st20" d="M303.8,119.9c0.5,0.2,0.5,0.7,0.5,1.1c0,1.5,0,2.9,0,4.4c0,0.5,0,0.9,0.2,1.3c-1.6,2.1-3.2,4.1-5,6.1
		c-0.6-0.3-0.6-0.9-0.6-1.5c0-1.8,0-3.7-0.1-5.5C300.6,123.8,302.2,121.9,303.8,119.9z"/><path class="st7" d="M327.8,100.3c-0.1,1,0.5,2.5-0.2,3.1c-0.6,0.6-2.1,0.2-3.3,0.2c-1.8,0-1.8,0-1.8-1.8c0-1.5,0-3,0-4.5
		c0-0.6,0.2-0.8,0.8-0.8c1.3,0,2.5,0,3.8,0c0.6,0,0.7,0.2,0.7,0.7C327.8,98.2,327.8,99.1,327.8,100.3z"/><path class="st12" d="M375.5,129.7c-0.3-1.3,0.1-2.6,0-4c-0.1-0.6,0-1.3-0.5-1.8c2-1.2,4.3-1.4,6.5-1.6c0.2,0,0.3,0,0.5,0.1
		c0.6,0.9,0.3,1.8,0.3,2.7c0,0.4,0.1,0.9,0,1.3c-0.2,0.5-0.7,0.5-1.1,0.6c-2,0.4-4,0.9-5.4,2.5C375.8,129.7,375.7,129.7,375.5,129.7
		z"/><path class="st21" d="M382.3,113.6c0-0.9,0-1.9,0-2.8c0-1.7,0-1.7-1.6-1.7c2.7-0.4,5.4-0.2,7.9,0.7c-0.4,1.3-0.1,2.6-0.2,4
		c0,0.4,0.2,0.9-0.3,1.2C386.3,114,384.3,113.6,382.3,113.6z"/><path class="st21" d="M382.5,144.2c-0.4-1.5-0.1-3-0.2-4.4c0.1-0.2,0.3-0.3,0.4-0.3c1.7-0.3,3.3-1,4.7-1.9c0.1-0.1,0.3-0.1,0.4-0.1
		c0.7,0.1,0.5,0.6,0.5,1c0.1,1-0.2,2.1,0.3,3.1C386.9,143.3,384.8,144,382.5,144.2z"/><path class="st11" d="M299,125.8c0.4,0.3,0.4,0.7,0.4,1.1c0,1.5,0,3.1,0,4.6c0,0.5,0,0.9,0.2,1.3c-0.4,0.6-0.8,1.1-1.3,1.6
		c-0.5,0.2-0.7-0.1-0.7-0.5c0-2.1,0-4.2,0-6.3C298,126.9,298.5,126.3,299,125.8z"/><path class="st9" d="M219.1,110.4c-0.5,0.3-0.3,0.7-0.3,1.1c0,2,0,4,0,6c0,0.5,0,0.9-0.2,1.3c-0.3-0.8-0.6-1.5-0.9-2.3
		c0.2-0.1,0.4-0.4,0.4-0.6c0-2,0.3-4.1-0.2-6.1C218.3,109.9,218.7,110.1,219.1,110.4z"/><path class="st20" d="M297.6,127.6c0.5,1.3,0.1,2.6,0.2,3.9c0,0.7,0,1.4,0,2.1c0,0.4,0,0.8,0.5,0.8c-0.2,0.4-0.4,0.7-0.7,0.9
		c-0.5-1.7-0.1-3.5-0.2-5.2c-0.1-0.6,0.3-1.3-0.4-1.8C297.2,128,297.4,127.8,297.6,127.6z"/><path class="st9" d="M218.8,120.6c0.3,0.4,0.1,0.8,0.2,1.2C218.8,121.5,218.8,121,218.8,120.6z"/><path class="st21" d="M388.4,126.5c-2,0.1-4.1,0.1-6.1,0.2c-0.5-1.4-0.1-2.8-0.2-4.2c1.8,0,3.6,0,5.4,0c0.7,0,1,0.2,1,0.9
		C388.3,124.4,388.4,125.4,388.4,126.5z"/><path class="st12" d="M374.8,131.9c0,1,0,1.9,0,2.9C374.5,133.8,374.5,132.8,374.8,131.9z"/></g></svg>